<svg width="18" height="22" viewBox="0 0 18 22" fill="none" xmlns="http://www.w3.org/2000/svg">
<path fill-rule="evenodd" clip-rule="evenodd" d="M11.6152 0.594925C11.9164 0.762868 12.0643 1.1146 11.9736 1.44734L9.98192 8.75H17.25C17.5486 8.75 17.8188 8.92718 17.9378 9.20109C18.0569 9.47499 18.0021 9.79341 17.7983 10.0117L7.29828 21.2617C7.06295 21.5139 6.68601 21.573 6.38478 21.4051C6.08354 21.2371 5.93567 20.8854 6.02641 20.5527L8.01805 13.25H0.749986C0.451338 13.25 0.181151 13.0728 0.0621255 12.7989C-0.0569 12.525 -0.00207827 12.2066 0.201695 11.9883L10.7017 0.73826C10.937 0.486127 11.314 0.426982 11.6152 0.594925Z" fill="#25C2A0"/>
</svg>
