<svg width="200" height="200" viewBox="0 0 200 200" fill="none" xmlns="http://www.w3.org/2000/svg">
<g clip-path="url(#clip0_505_621)">
<path d="M98.3398 25.6055C96.7188 25.8398 96.2891 26.0156 91.9922 27.9883C89.9023 28.9453 84.9805 31.2109 81.0547 33.0078C77.1289 34.8047 70.1563 38.0273 65.5273 40.1367C60.918 42.2656 53.2617 45.7812 48.5352 47.9492C43.8086 50.1172 36.1719 53.6328 31.543 55.7617C26.9336 57.8906 20.293 60.9375 16.8164 62.5391C8.73047 66.25 7.30469 67.168 4.6875 70.293C2.30469 73.1445 0.820313 76.5039 0.253907 80.3516C-0.332031 84.2969 0.390625 88.2031 2.42188 92.0898C2.98828 93.1641 7.44141 100.625 12.3438 108.691C17.2266 116.738 21.875 124.395 22.6562 125.684C23.4375 126.973 24.2383 128.262 24.4531 128.574L24.8242 129.102L100.059 129.062L175.293 129.004L176.387 127.246C177.441 125.547 180.273 120.898 185.547 112.207C188.184 107.832 192.715 100.391 194.98 96.6797C197.344 92.8125 197.715 92.1289 198.34 90.625C200.43 85.625 200.469 80.6836 198.437 75.4297C197.656 73.3789 195.859 70.7031 194.102 68.9453C191.504 66.3476 191.094 66.1133 173.828 58.2031C163.652 53.5351 149.434 47.0117 141.504 43.3594C129.258 37.7148 113.867 30.6445 108.652 28.2422C102.969 25.6445 101.172 25.1758 98.3398 25.6055ZM102.07 46.8164C102.695 47.0312 103.359 47.4805 104.004 48.125C104.863 49.0039 105.469 50.1172 108.887 57.0703C112.617 64.707 112.813 65.0391 113.379 65.1367C113.691 65.1758 117.656 65.7617 122.168 66.4062C130.684 67.6562 131.387 67.8125 132.793 68.9258C134.57 70.332 135.234 73.1641 134.355 75.4883C133.867 76.7773 133.75 76.9141 125.176 85.2734L120.742 89.5898L120.918 90.5469C123.477 104.18 123.965 108.477 123.105 110.059C122.52 111.172 121.348 112.285 120.215 112.812C119.121 113.34 117.129 113.457 116.035 113.066C115.449 112.871 107.988 108.984 102.266 105.937L99.9219 104.687L95.918 106.816C93.7109 107.988 89.9609 109.922 87.6172 111.133C83.3398 113.32 83.3398 113.32 81.7578 113.242C80.6445 113.184 79.9219 113.027 79.3555 112.734C77.4414 111.738 76.0938 109.609 76.1133 107.617C76.1328 106.719 78.7109 91.0351 79.0234 89.9805C79.1016 89.7266 77.9688 88.5156 74.668 85.3125C67.1289 77.9687 66.1133 76.9336 65.625 75.8789C65 74.5898 64.8828 72.832 65.332 71.5039C65.7617 70.1953 67.2656 68.5351 68.4961 68.0078C69.1602 67.7344 71.9336 67.2461 77.7344 66.4258C82.3047 65.7617 86.2695 65.1758 86.543 65.1172C86.9922 65.0391 87.5 64.1211 90.9766 57.0703C93.125 52.6953 95.1758 48.7891 95.5078 48.3984C95.8203 48.0078 96.6406 47.4219 97.3047 47.0898C98.2813 46.6016 98.7305 46.4844 99.8047 46.4844C100.508 46.4844 101.543 46.6406 102.07 46.8164ZM51.9922 80.8008C56.6602 82.9492 56.7969 89.2969 52.2266 91.5234C51.2695 91.9922 50.8789 92.0508 48.4766 92.1484C43.1055 92.3242 40.8789 91.4258 39.4727 88.4766C37.9883 85.3516 39.8047 81.582 43.3594 80.4492C43.6328 80.3711 45.4688 80.3125 47.4609 80.332C50.7031 80.3711 51.1719 80.4101 51.9922 80.8008ZM157.441 80.7812C160.137 82.0312 161.543 84.7851 160.859 87.4609C160.352 89.4531 159.414 90.5859 157.422 91.6016C155.703 92.4805 149.512 92.3437 147.637 91.3867C146.563 90.8398 145.352 89.5898 144.863 88.4961C144.258 87.207 144.277 85 144.902 83.7891C145.703 82.2266 147.148 80.9961 148.828 80.4492C149.102 80.3516 150.938 80.3125 152.93 80.332C156.113 80.3711 156.641 80.4297 157.441 80.7812ZM97.8125 69.8242C94.7656 75.9961 94.8047 75.9766 86.4844 77.0703C85 77.2656 83.7891 77.4805 83.7891 77.5391C83.7891 77.6172 85.2539 79.1016 87.0313 80.8398C90.7422 84.4726 91.2109 85.1953 91.2109 87.3047C91.2109 88.3203 90.7031 91.8164 89.9414 95.957C89.8633 96.4453 89.9023 96.5039 90.2734 96.3672C90.4883 96.3086 92.3633 95.3516 94.4141 94.2578C98.1445 92.2851 98.1445 92.2851 99.8438 92.2851C101.543 92.2851 101.543 92.2851 105.664 94.3945C107.949 95.5664 109.824 96.4844 109.863 96.4453C109.902 96.4062 109.648 94.6094 109.277 92.4805C108.086 85.5469 108.047 85.6836 112.656 81.0156C114.551 79.1016 116.055 77.5195 115.996 77.4805C115.957 77.4414 113.945 77.1289 111.543 76.7773C105.039 75.8398 104.922 75.7617 101.953 69.7656C100.879 67.5976 99.9609 65.8203 99.9023 65.8203C99.8438 65.8203 98.9063 67.6172 97.8125 69.8242ZM25.0586 141.133C25 141.289 25 144.082 25.0586 147.324C25.1758 154.023 25.4102 155.625 26.7383 159.023C30.1953 167.832 38.1055 173.672 47.5586 174.414C50.8398 174.668 149.805 174.668 152.734 174.414C161.816 173.613 169.57 167.93 173.047 159.551C174.59 155.84 175.059 152.227 174.961 144.922L174.902 140.918L100.039 140.859C32.0508 140.82 25.1758 140.84 25.0586 141.133Z" fill="#2E8555"/>
</g>
<defs>
<clipPath id="clip0_505_621">
<rect width="200" height="200" fill="white"/>
</clipPath>
</defs>
</svg>
