<svg width="199" height="228" viewBox="0 0 199 228" fill="none" xmlns="http://www.w3.org/2000/svg">
<g clip-path="url(#clip0_23_27)">
<path d="M91.3195 0.178131C68.0228 1.62094 46.4867 8.31844 26.0532 20.4488C14.2803 27.4313 0 38.7956 0 41.1825C0 41.6991 0.889187 42.0019 3.12994 42.1978C5.45961 42.4116 7.66479 42.9281 10.5102 43.9256C19.7222 47.1319 28.7029 53.6156 42.3786 66.9394C44.2281 68.7384 45.9887 70.3238 46.3266 70.4841C47.287 70.9472 47.9094 70.68 50.9682 68.5603C63.9147 59.5472 76.4523 54.5241 89.8968 52.9744C93.5958 52.5469 100.692 52.5469 104.302 52.9744C107.609 53.3663 112.304 54.2925 115.221 55.1297C136.615 61.3284 154.523 78.66 160.214 98.6813C161.37 102.76 161.796 105.86 161.956 111.595C162.099 117.117 162.063 117.242 159.431 118.239C157.599 118.934 146.894 122.354 143.924 123.191C140.723 124.082 140.954 123.886 141.096 125.81C141.167 126.7 141.381 128.428 141.559 129.657C142.092 133.148 142.288 137.94 142.092 142.144C141.843 147.22 141.647 149.269 140.58 157.284C139.638 164.392 139.104 168.773 138.891 171.089C138.518 175.631 138.766 182.97 139.531 188.813C140.669 197.576 142.75 203.134 148.121 211.613C151.944 217.687 156.87 224.491 158.898 226.522C160.676 228.321 161.138 228.428 161.654 227.234C162.045 226.343 162.134 225.488 162.366 220.608C163.059 206.714 166.171 194.406 173.836 175.364C174.743 173.102 177.055 167.544 178.993 162.984C186.658 144.887 188.845 139.329 191.904 130.209C195.568 119.201 197.524 110.224 198.591 99.3938C198.964 95.5997 199.018 85.7494 198.68 82.2047C197.222 66.9216 193.185 54.7556 185.609 42.8391C171.222 20.235 144.671 4.73813 113.905 0.979693C107.467 0.178131 97.117 -0.178119 91.3195 0.178131Z" fill="white"/>
<path d="M93.2757 60.5803C84.1171 61.1147 75.3675 63.4303 66.7246 67.6163C61.674 70.0566 58.0106 72.2831 53.1556 75.8991C49.8834 78.3216 49.0831 79.1766 49.0831 80.1385C49.0831 80.9578 49.4032 81.4032 52.96 85.5357C57.7438 91.0753 57.6905 91.0219 59.0242 91.0219C60.0557 91.0219 60.8737 90.6122 63.1323 88.92C70.3703 83.5585 77.8039 80.5125 86.3401 79.426C89.2388 79.0519 95.4631 79.141 98.433 79.5863C104.177 80.4769 109.014 82.0444 113.976 84.6272C123.81 89.7216 131.333 97.7194 135.583 107.588C136.455 109.618 136.828 110.723 137.984 114.677C138.535 116.529 138.553 116.547 142.128 115.55C143.71 115.104 146.716 114.41 148.779 114.018C155.43 112.753 157.333 112.272 157.76 111.738C158.364 111.008 157.991 109.529 155.661 103.669C152.424 95.4572 148.743 88.9022 144.119 83.0953C142.021 80.4591 136.615 75.0975 134.089 73.1381C125.429 66.4228 115.47 62.2725 104.746 60.9366C103.252 60.7406 96.8858 60.3666 96.0322 60.42C95.7832 60.42 94.5561 60.4913 93.2757 60.5803Z" fill="white"/>
<path d="M90.0746 86.2125C83.0856 87.1031 78.2128 88.5281 72.4509 91.3603C68.6096 93.2306 65.8354 95.0297 62.332 97.8975C60.607 99.2869 43.6591 116.351 26.5867 133.861C22.1941 138.368 17.3747 143.302 15.8986 144.816C13.1066 147.666 10.439 150.89 10.03 151.887C9.56763 152.974 9.86995 153.33 14.1558 156.536C17.1079 158.745 18.5306 159.6 19.2598 159.6C19.8288 159.6 20.0778 159.404 24.2748 155.574C29.8767 150.48 36.9368 143.195 46.8601 132.258C54.0448 124.331 53.7958 124.581 55.2007 123.993C59.0064 122.408 63.9859 122.479 69.0009 124.171C72.7355 125.436 76.7724 127.68 79.8667 130.174C81.9296 131.83 84.9707 135.108 86.2867 137.085C87.4426 138.813 89.8078 143.373 89.8078 143.872C89.8078 144.691 88.2073 146.152 84.7395 148.503C78.2128 152.903 68.0228 154.666 60.1446 152.724C55.8943 151.673 52.8532 149.981 49.9723 147.06C49.3498 146.419 48.7096 145.884 48.5674 145.884C47.607 145.884 46.3088 147.523 44.6549 150.818C43.0011 154.114 38.235 161.898 22.9766 186.23C18.9041 192.696 15.4007 198.413 15.1517 198.948C14.7249 199.874 14.7249 199.928 15.0095 200.462C15.294 200.978 16.6633 202.047 20.0778 204.452C22.8521 206.411 27.4225 208.353 31.8507 209.475C39.2665 211.381 48.8163 211.559 57.4414 210.009C70.2102 207.694 80.3291 201.833 84.1704 194.548C84.615 193.693 85.5042 191.752 86.1622 190.238C86.8024 188.723 87.4604 187.298 87.6027 187.067C88.0117 186.443 88.4563 186.586 89.2388 187.619C90.2702 188.937 92.5465 191.11 93.827 191.965C99.3577 195.706 111.771 200.052 122.761 202.083C128.896 203.223 128.932 203.241 129.359 203.063C130.07 202.795 130.07 202.118 129.394 198.77C127.954 191.502 127.278 182.008 127.669 174.099C127.99 167.509 128.612 162.397 130.177 153.366C131.902 143.302 132.364 138.795 132.364 131.634C132.364 126.576 132.204 124.118 131.582 120.145C128.612 101.175 117.711 89.1516 101.012 86.4797C98.842 86.1235 92.0308 85.9631 90.0746 86.2125Z" fill="white"/>
</g>
<defs>
<clipPath id="clip0_23_27">
<rect width="199" height="228" fill="white"/>
</clipPath>
</defs>
</svg>
