<?xml version="1.0" standalone="no"?>
<!DOCTYPE svg PUBLIC "-//W3C//DTD SVG 20010904//EN"
 "http://www.w3.org/TR/2001/REC-SVG-20010904/DTD/svg10.dtd">
<svg version="1.0" xmlns="http://www.w3.org/2000/svg"
 width="1119.000000pt" height="1280.000000pt" viewBox="0 0 1119.000000 1280.000000"
 preserveAspectRatio="xMidYMid meet">
<metadata>
Created by potrace 1.15, written by Peter Selinger 2001-2017
</metadata>
<g transform="translate(0.000000,1280.000000) scale(0.100000,-0.100000)"
fill="#000000" stroke="none">
<path d="M5135 12790 c-1310 -81 -2521 -457 -3670 -1138 -662 -392 -1465
-1030 -1465 -1164 0 -29 50 -46 176 -57 131 -12 255 -41 415 -97 518 -180
1023 -544 1792 -1292 104 -101 203 -190 222 -199 54 -26 89 -11 261 108 728
506 1433 788 2189 875 208 24 607 24 810 0 186 -22 450 -74 614 -121 1203
-348 2210 -1321 2530 -2445 65 -229 89 -403 98 -725 8 -310 6 -317 -142 -373
-103 -39 -705 -231 -872 -278 -180 -50 -167 -39 -159 -147 4 -50 16 -147 26
-216 30 -196 41 -465 30 -701 -14 -285 -25 -400 -85 -850 -53 -399 -83 -645
-95 -775 -21 -255 -7 -667 36 -995 64 -492 181 -804 483 -1280 215 -341 492
-723 606 -837 100 -101 126 -107 155 -40 22 50 27 98 40 372 39 780 214 1471
645 2540 51 127 181 439 290 695 431 1016 554 1328 726 1840 206 618 316 1122
376 1730 21 213 24 766 5 965 -82 858 -309 1541 -735 2210 -809 1269 -2302
2139 -4032 2350 -362 45 -944 65 -1270 45z"/>
<path d="M5245 9399 c-515 -30 -1007 -160 -1493 -395 -284 -137 -490 -262
-763 -465 -184 -136 -229 -184 -229 -238 0 -46 18 -71 218 -303 269 -311 266
-308 341 -308 58 0 104 23 231 118 407 301 825 472 1305 533 163 21 513 16
680 -9 323 -50 595 -138 874 -283 553 -286 976 -735 1215 -1289 49 -114 70
-176 135 -398 31 -104 32 -105 233 -49 89 25 258 64 374 86 374 71 481 98 505
128 34 41 13 124 -118 453 -182 461 -389 829 -649 1155 -118 148 -422 449
-564 559 -487 377 -1047 610 -1650 685 -84 11 -442 32 -490 29 -14 0 -83 -4
-155 -9z"/>
<path d="M5065 7960 c-393 -50 -667 -130 -991 -289 -216 -105 -372 -206 -569
-367 -97 -78 -1050 -1036 -2010 -2019 -247 -253 -518 -530 -601 -615 -157
-160 -307 -341 -330 -397 -26 -61 -9 -81 232 -261 166 -124 246 -172 287 -172
32 0 46 11 282 226 315 286 712 695 1270 1309 404 445 390 431 469 464 214 89
494 85 776 -10 210 -71 437 -197 611 -337 116 -93 287 -277 361 -388 65 -97
198 -353 198 -381 0 -46 -90 -128 -285 -260 -367 -247 -940 -346 -1383 -237
-239 59 -410 154 -572 318 -35 36 -71 66 -79 66 -54 0 -127 -92 -220 -277 -93
-185 -361 -622 -1219 -1988 -229 -363 -426 -684 -440 -714 -24 -52 -24 -55 -8
-85 16 -29 93 -89 285 -224 156 -110 413 -219 662 -282 417 -107 954 -117
1439 -30 718 130 1287 459 1503 868 25 48 75 157 112 242 36 85 73 165 81 178
23 35 48 27 92 -31 58 -74 186 -196 258 -244 311 -210 1009 -454 1627 -568
345 -64 347 -65 371 -55 40 15 40 53 2 241 -81 408 -119 941 -97 1385 18 370
53 657 141 1164 97 565 123 818 123 1220 0 284 -9 422 -44 645 -167 1065 -780
1740 -1719 1890 -122 20 -505 29 -615 15z"/>
</g>
</svg>
