<svg width="1082" height="251" viewBox="0 0 1082 251" fill="none" xmlns="http://www.w3.org/2000/svg">
<g clip-path="url(#clip0_3_18)">
<path d="M77.0938 29.1508C57.4263 30.3721 39.245 36.0415 21.9946 46.3097C12.0558 52.2203 0 61.8401 0 63.8606C0 64.2979 0.75067 64.5542 2.64236 64.7201C4.60912 64.901 6.47078 65.3383 8.87292 66.1826C16.6499 68.8967 24.2316 74.3851 35.7769 85.6636C37.3383 87.1865 38.8247 88.5284 39.1099 88.6641C39.9206 89.0562 40.4461 88.83 43.0284 87.0357C53.9582 79.4062 64.5426 75.1541 75.8928 73.8423C79.0156 73.4805 85.0059 73.4805 88.0536 73.8423C90.8461 74.174 94.8097 74.9581 97.2719 75.6668C115.333 80.914 130.451 95.585 135.256 112.533C136.232 115.986 136.592 118.609 136.727 123.464C136.847 128.139 136.817 128.244 134.595 129.089C133.049 129.677 124.011 132.572 121.503 133.28C118.801 134.034 118.996 133.868 119.116 135.497C119.176 136.251 119.357 137.713 119.507 138.754C119.957 141.709 120.122 145.765 119.957 149.323C119.747 153.621 119.582 155.355 118.681 162.14C117.885 168.156 117.435 171.865 117.255 173.825C116.939 177.67 117.15 183.882 117.795 188.828C118.756 196.247 120.513 200.951 125.047 208.128C128.275 213.27 132.433 219.03 134.145 220.748C135.646 222.271 136.036 222.362 136.472 221.352C136.802 220.598 136.877 219.874 137.072 215.743C137.658 203.982 140.285 193.563 146.756 177.444C147.522 175.529 149.473 170.825 151.11 166.965C157.581 151.645 159.427 146.941 162.01 139.221C165.102 129.903 166.754 122.303 167.655 113.136C167.97 109.924 168.015 101.586 167.73 98.5855C166.499 85.6485 163.091 75.3501 156.695 65.2629C144.549 46.1287 122.134 33.0108 96.1609 29.8293C90.726 29.1508 81.9882 28.8492 77.0938 29.1508Z" fill="black"/>
<path d="M78.7453 80.2807C71.0134 80.733 63.6268 82.6932 56.3303 86.2366C52.0665 88.3023 48.9737 90.187 44.8751 93.2479C42.1126 95.2985 41.437 96.0223 41.437 96.8365C41.437 97.5301 41.7073 97.907 44.7099 101.405C48.7485 106.094 48.7035 106.049 49.8295 106.049C50.7003 106.049 51.3909 105.702 53.2976 104.27C59.4081 99.7315 65.6837 97.1531 72.8901 96.2334C75.3373 95.9167 80.592 95.9921 83.0992 96.3691C87.9485 97.123 92.0322 98.4498 96.2209 100.636C104.523 104.949 110.874 111.719 114.462 120.072C115.198 121.791 115.513 122.726 116.489 126.073C116.954 127.641 116.969 127.656 119.987 126.812C121.323 126.435 123.861 125.847 125.602 125.515C131.217 124.445 132.824 124.037 133.184 123.585C133.694 122.967 133.379 121.715 131.412 116.755C128.68 109.804 125.572 104.255 121.669 99.3394C119.897 97.1079 115.333 92.5694 113.201 90.9108C105.89 85.2263 97.482 81.7131 88.429 80.5823C87.1678 80.4164 81.793 80.0998 81.0724 80.145C80.8622 80.145 79.8263 80.2053 78.7453 80.2807Z" fill="black"/>
<path d="M76.0429 101.978C70.1426 102.732 66.029 103.938 61.1646 106.336C57.9217 107.919 55.5796 109.442 52.622 111.869C51.1657 113.045 36.8579 127.49 22.445 142.312C18.7367 146.127 14.6681 150.304 13.422 151.585C11.0649 153.998 8.81287 156.727 8.46756 157.571C8.07721 158.491 8.33244 158.792 11.9507 161.507C14.4429 163.376 15.644 164.1 16.2595 164.1C16.7399 164.1 16.9501 163.934 20.4933 160.692C25.2225 156.38 31.1828 150.213 39.5603 140.955C45.6257 134.245 45.4155 134.456 46.6016 133.959C49.8145 132.617 54.0182 132.677 58.252 134.11C61.4048 135.18 64.8129 137.08 67.4252 139.191C69.1668 140.593 71.734 143.368 72.845 145.041C73.8209 146.504 75.8177 150.364 75.8177 150.786C75.8177 151.48 74.4665 152.716 71.5389 154.706C66.029 158.431 57.4263 159.923 50.7753 158.28C47.1871 157.39 44.6198 155.958 42.1877 153.485C41.6622 152.942 41.1217 152.49 41.0016 152.49C40.1909 152.49 39.0949 153.877 37.6987 156.666C36.3024 159.456 32.2788 166.045 19.3973 186.642C15.9592 192.115 13.0016 196.955 12.7914 197.408C12.4311 198.192 12.4311 198.237 12.6713 198.689C12.9115 199.126 14.0676 200.031 16.9501 202.067C19.2922 203.725 23.1507 205.369 26.889 206.319C33.1496 207.932 41.2118 208.083 48.4933 206.771C59.2729 204.811 67.8155 199.85 71.0584 193.683C71.4338 192.96 72.1844 191.316 72.7399 190.034C73.2804 188.753 73.8359 187.546 73.956 187.35C74.3013 186.823 74.6767 186.943 75.3373 187.818C76.208 188.934 78.1298 190.773 79.2107 191.497C83.8799 194.663 94.3592 198.342 103.638 200.061C108.817 201.026 108.847 201.041 109.208 200.891C109.808 200.664 109.808 200.091 109.238 197.257C108.021 191.105 107.451 183.068 107.781 176.374C108.051 170.795 108.577 166.467 109.898 158.823C111.354 150.304 111.745 146.489 111.745 140.427C111.745 136.145 111.61 134.064 111.084 130.702C108.577 114.644 99.3737 104.466 85.2761 102.204C83.4445 101.903 77.6944 101.767 76.0429 101.978Z" fill="black"/>
</g>
<path d="M221.96 125.14C221.96 115.9 223.808 107.672 227.504 100.456C231.288 93.24 236.656 87.652 243.608 83.692C250.56 79.644 258.744 77.62 268.16 77.62C276.256 77.62 283.472 79.16 289.808 82.24C296.232 85.232 301.424 89.5 305.384 95.044C309.432 100.588 312.116 107.056 313.436 114.448H282.548C281.14 111.368 279.116 108.992 276.476 107.32C273.924 105.56 270.976 104.68 267.632 104.68C262.704 104.68 258.788 106.528 255.884 110.224C253.068 113.92 251.66 118.892 251.66 125.14C251.66 131.388 253.068 136.36 255.884 140.056C258.788 143.752 262.704 145.6 267.632 145.6C270.976 145.6 273.924 144.764 276.476 143.092C279.116 141.332 281.14 138.912 282.548 135.832H313.436C312.116 143.224 309.432 149.692 305.384 155.236C301.424 160.78 296.232 165.092 289.808 168.172C283.472 171.164 276.256 172.66 268.16 172.66C258.744 172.66 250.56 170.68 243.608 166.72C236.656 162.672 231.288 157.04 227.504 149.824C223.808 142.608 221.96 134.38 221.96 125.14ZM353.291 101.908V113.392H382.331V135.436H353.291V148.636H386.291V172H323.987V78.544H386.291V101.908H353.291ZM486.962 172H457.658L426.638 125.008V172H397.334V78.544H426.638L457.658 126.328V78.544H486.962V172ZM573.594 78.544V101.776H548.778V172H519.474V101.776H494.922V78.544H573.594ZM610.185 78.544V131.212C610.185 135.524 611.109 138.956 612.957 141.508C614.893 143.972 617.973 145.204 622.197 145.204C626.421 145.204 629.545 143.972 631.569 141.508C633.593 138.956 634.605 135.524 634.605 131.212V78.544H663.777V131.212C663.777 140.1 661.929 147.712 658.233 154.048C654.537 160.296 649.477 165.004 643.053 168.172C636.629 171.34 629.457 172.924 621.537 172.924C613.617 172.924 606.577 171.34 600.417 168.172C594.345 165.004 589.593 160.296 586.161 154.048C582.729 147.8 581.013 140.188 581.013 131.212V78.544H610.185ZM723.408 172L705.852 138.472H705.72V172H676.416V78.544H719.976C727.544 78.544 734.012 79.908 739.38 82.636C744.748 85.276 748.752 88.928 751.392 93.592C754.12 98.168 755.484 103.36 755.484 109.168C755.484 115.416 753.724 120.96 750.204 125.8C746.772 130.64 741.8 134.116 735.288 136.228L755.616 172H723.408ZM705.72 118.936H717.336C720.152 118.936 722.264 118.32 723.672 117.088C725.08 115.768 725.784 113.744 725.784 111.016C725.784 108.552 725.036 106.616 723.54 105.208C722.132 103.8 720.064 103.096 717.336 103.096H705.72V118.936ZM794.15 78.544V172H764.846V78.544H794.15ZM852.925 172.924C844.125 172.924 836.029 170.856 828.637 166.72C821.333 162.584 815.525 156.864 811.213 149.56C806.901 142.256 804.745 134.028 804.745 124.876C804.745 115.724 806.901 107.496 811.213 100.192C815.525 92.888 821.333 87.212 828.637 83.164C836.029 79.028 844.125 76.96 852.925 76.96C861.725 76.96 869.777 79.028 877.081 83.164C884.385 87.212 890.149 92.888 894.373 100.192C898.685 107.496 900.841 115.724 900.841 124.876C900.841 134.028 898.685 142.256 894.373 149.56C890.149 156.864 884.341 162.584 876.949 166.72C869.645 170.856 861.637 172.924 852.925 172.924ZM852.925 145.6C858.733 145.6 863.221 143.752 866.389 140.056C869.557 136.272 871.141 131.212 871.141 124.876C871.141 118.452 869.557 113.392 866.389 109.696C863.221 105.912 858.733 104.02 852.925 104.02C847.029 104.02 842.497 105.912 839.329 109.696C836.161 113.392 834.577 118.452 834.577 124.876C834.577 131.212 836.161 136.272 839.329 140.056C842.497 143.752 847.029 145.6 852.925 145.6ZM1001.04 172H971.737L940.717 125.008V172H911.413V78.544H940.717L971.737 126.328V78.544H1001.04V172Z" fill="#0EA5E9"/>
<defs>
<clipPath id="clip0_3_18">
<rect width="168" height="193" fill="white" transform="translate(0 29)"/>
</clipPath>
</defs>
</svg>
